<svg width="16" height="13" viewBox="0 0 16 13" fill="none" xmlns="http://www.w3.org/2000/svg">
<path d="M1.77778 1.78571L6.52816 5.40964L6.52975 5.41096C7.05722 5.80172 7.32111 5.99722 7.61015 6.07274C7.86562 6.13949 8.13417 6.13949 8.38965 6.07274C8.67894 5.99715 8.9436 5.80109 9.47201 5.40964C9.47201 5.40964 12.519 3.04752 14.2222 1.78571M1 9.48587V3.51444C1 2.63436 1 2.19399 1.16955 1.85784C1.31868 1.56216 1.55648 1.32193 1.84918 1.17128C2.18193 1 2.61785 1 3.48904 1H12.5113C13.3825 1 13.8174 1 14.1502 1.17128C14.4429 1.32193 14.6815 1.56216 14.8306 1.85784C15 2.19366 15 2.6335 15 3.51186V9.48853C15 10.3669 15 10.8061 14.8306 11.1419C14.6815 11.4376 14.4429 11.6782 14.1502 11.8289C13.8178 12 13.383 12 12.5135 12H3.48649C2.617 12 2.1816 12 1.84918 11.8289C1.55648 11.6782 1.31868 11.4376 1.16955 11.1419C1 10.8058 1 10.366 1 9.48587Z" stroke="white" stroke-linecap="round" stroke-linejoin="round"/>
</svg>
